Motion_kv04_j
version=1
nRows=10
nColumns=43
inDegrees=yes
endheader
time	pelvis_tilt	pelvis_list	pelvis_rotation	pelvis_tx	pelvis_ty	pelvis_tz	hip_flexion_r	hip_adduction_r	hip_rotation_r	knee_angle_r	ankle_angle_r	subtalar_angle_r	mtp_angle_r	hip_flexion_l	hip_adduction_l	hip_rotation_l	knee_angle_l	ankle_angle_l	subtalar_angle_l	mtp_angle_l	lumbar_extension	lumbar_bending	lumbar_rotation	neck_flexion	neck_lateral_bending	neck_rotation	arm_flex_r	arm_add_r	arm_rot_r	elbow_flex_r	pro_sup_r	wrist_flex_r	wrist_dev_r	hand_finger_flex_r	arm_flex_l	arm_add_l	arm_rot_l	elbow_flex_l	pro_sup_l	wrist_flex_l	wrist_dev_l	hand_finger_flex_l
      0.00250000	      0.29765006	    -11.34463011	    -87.89782607	     -0.02148031	      0.96232958	      0.19336786	    -15.77909560	     -5.17908255	    -11.70296214	     -5.22934764	     15.56922301	     11.86361490	     -0.24429110	    -17.37228248	     -7.05462974	    -19.90743872	      0.09645261	      3.36563086	     36.87375472	      8.33030443	    -31.45637560	     -0.28479192	     -0.72030927	      7.63862718	      1.98639815	     -4.03752843	      4.83498026	    -22.52334744	    -46.67816122	     42.04436029	     93.08671457	      3.71056253	     -7.70950137	      5.01135468	      4.72393873	    -27.12772921	    -16.07778626	     59.98067837	    101.14434015	    -15.97322218	     -4.29197927	    -13.18860584
      0.00500000	      0.18812730	    -11.43625740	    -87.89317103	     -0.02127822	      0.96245871	      0.19316706	    -15.77251094	     -5.07684996	    -11.64717218	     -5.41286230	     15.71517203	     11.94428440	     -0.25665534	    -17.44492622	     -7.16689255	    -19.99146334	      0.06743071	      3.45853869	     36.96316973	      8.43904952	    -31.73501403	     -0.12916501	     -0.70124881	      7.99582626	      1.91114310	     -3.94248444	      5.14820174	    -22.32427211	    -46.12814650	     42.05551785	     93.23014102	      3.81236748	     -7.56309602	      4.57172457	      5.15073751	    -26.75684662	    -15.69497252	     59.80970936	    101.18471787	    -15.89507885	     -4.36996689	    -13.32240050
      0.00750000	      0.16894850	    -11.43798913	    -87.88718517	     -0.02137424	      0.96241808	      0.19322248	    -15.75003458	     -5.04060176	    -11.62180346	     -5.46480869	     15.75456036	     11.95273612	     -0.26883204	    -17.48122539	     -7.18316027	    -20.05757283	      0.13330976	      3.49368145	     36.99684655	      8.49074665	    -31.87879425	     -0.10183854	     -0.81528837	      8.23028145	      1.92286898	     -3.94559822	      5.47593986	    -21.94922902	    -45.64166256	     42.13557398	     93.33610131	      3.92133795	     -7.53656184	      4.35089614	      5.46554814	    -26.50937295	    -15.35064527	     59.61747245	    101.22130428	    -15.85530490	     -4.34347687	    -13.40891885
      0.01000000	      0.17010837	    -11.49639145	    -87.83518418	     -0.02119344	      0.96253209	      0.19295953	    -15.72039297	     -5.03992281	    -11.59576187	     -5.62730099	     15.83695820	     11.92638209	     -0.27990277	    -17.51266024	     -7.19132354	    -20.07003808	      0.11994171	      3.47471197	     37.06389282	      8.54886171	    -32.12931745	     -0.05239309	     -0.87758120	      8.59835501	      1.86585149	     -3.89671781	      5.80536530	    -21.74598638	    -45.00622048	     42.09592647	     93.55859283	      3.98779168	     -7.47575525	      4.02017420	      5.91649936	    -26.24131393	    -14.85335737	     59.43434166	    101.28879662	    -15.84428337	     -4.32288059	    -13.55490028
      0.01250000	      0.17089777	    -11.53598988	    -87.81104230	     -0.02117143	      0.96259944	      0.19280845	    -15.68907672	     -5.03453322	    -11.56365061	     -5.77181442	     15.91255543	     11.88769304	     -0.29399686	    -17.54154563	     -7.19724301	    -20.08217837	      0.13188550	      3.45159727	     37.11097941	      8.60942037	    -32.34967632	     -0.02904584	     -0.95114381	      8.91442915	      1.84582975	     -3.86972625	      6.10320090	    -21.49265362	    -44.35707195	     42.12579561	     93.79496784	      4.04140075	     -7.48066456	      3.65218014	      6.31802965	    -26.02636902	    -14.33834531	     59.26892000	    101.36728881	    -15.87805268	     -4.30922442	    -13.74542521
      0.01500000	      0.18268362	    -11.56907366	    -87.77642694	     -0.02107834	      0.96264216	      0.19265041	    -15.64685242	     -5.04621347	    -11.52275223	     -5.91676879	     15.99529141	     11.84077186	     -0.30813715	    -17.56512231	     -7.19017849	    -20.09169583	      0.14057841	      3.42212048	     37.15203786	      8.67064717	    -32.55965259	     -0.00923129	     -1.00606083	      9.24313386	      1.81565342	     -3.83737727	      6.40091014	    -21.26934404	    -43.70215504	     42.12006897	     94.06368783	      4.06984947	     -7.49789756	      3.25421602	      6.73930300	    -25.80236788	    -13.79552809	     59.12190372	    101.45003314	    -15.93449883	     -4.29742762	    -13.97279453
      0.01750000	      0.16033266	    -11.52146735	    -87.85931225	     -0.02131416	      0.96261395	      0.19239193	    -15.43329319	     -5.03821321	    -11.09546280	     -6.16355457	     16.01494551	     11.42489763	     -0.71336003	    -17.46263880	     -7.21178713	    -20.16824405	      0.05673165	      3.19283850	     37.14698930	      9.60953949	    -32.66167304	     -0.06274247	     -0.87831225	      9.28893595	      1.87915793	     -3.92832774	      6.56759372	    -21.13337463	    -42.97428598	     41.90638343	     94.24979891	      5.63887667	     -8.26429164	     -1.39711999	      7.19293578	    -25.80541636	    -12.60929176	     58.99456979	    100.90444729	    -15.97513258	     -4.39548643	    -16.67371907
      0.02000000	      0.17691178	    -11.46778332	    -87.83252567	     -0.02127861	      0.96246993	      0.19251897	    -15.40075577	     -5.04026030	    -11.12327288	     -6.13791206	     16.15798222	     11.40718414	     -0.70036120	    -17.47908160	     -7.17412565	    -20.19132665	      0.20183730	      3.26314247	     37.17948061	      9.63475817	    -32.76303925	     -0.05175056	     -0.96690014	      9.68275705	      1.85320297	     -3.89304874	      6.85591325	    -20.84629824	    -42.46972675	     41.98846357	     94.48963921	      5.73846380	     -8.08619514	     -1.44355262	      7.55240389	    -25.51724778	    -12.31579737	     58.85352136	    100.97595183	    -15.83580938	     -4.36563631	    -16.68429964
      0.02250000	      0.20300430	    -11.49432812	    -87.79182127	     -0.02117706	      0.96255339	      0.19224539	    -15.33511060	     -5.07316612	    -11.08815589	     -6.30606338	     16.21652130	     11.41680700	     -0.69804261	    -17.45946790	     -7.16144661	    -20.17443184	      0.16060950	      3.22071053	     37.22346523	      9.64933301	    -32.99042701	     -0.03490882	     -1.04544936	     10.02919297	      1.80892416	     -3.86288196	      7.17296828	    -20.62326438	    -41.84774157	     42.06897990	     94.84337044	      5.77745550	     -7.91914998	     -1.54650636	      7.97340179	    -25.29065732	    -11.90341697	     58.75318084	    101.11540620	    -15.72515410	     -4.36546613	    -16.75343952
      0.02500000	      0.22550671	    -11.47887866	    -87.76720454	     -0.02113840	      0.96253753	      0.19212472	    -15.28160997	     -5.09363047	    -11.04412554	     -6.37848351	     16.27910240	     11.40090691	     -0.69496295	    -17.43490998	     -7.14369235	    -20.17169240	      0.16874304	      3.19645970	     37.24921088	      9.66643874	    -33.15055651	     -0.02958321	     -1.11696643	     10.35129026	      1.78096356	     -3.85702406	      7.47623586	    -20.38868478	    -41.22826484	     42.15313482	     95.21925900	      5.76128678	     -7.82752951	     -1.68700645	      8.37016867	    -25.07672015	    -11.47991162	     58.66237730	    101.27528153	    -15.68205449	     -4.36721695	    -16.88399640
